<svg width="15" height="14" viewBox="0 0 15 14" fill="none" xmlns="http://www.w3.org/2000/svg">
<path d="M11.2525 6.15692L7.3025 2.20692C7.12035 2.01832 7.01955 1.76571 7.02183 1.50352C7.02411 1.24132 7.12928 0.990508 7.31469 0.8051C7.50009 0.619692 7.75091 0.514523 8.0131 0.512245C8.2753 0.509966 8.5279 0.610761 8.7165 0.792919L14.3735 6.44992C14.4667 6.54257 14.5406 6.65273 14.5911 6.77407C14.6416 6.8954 14.6675 7.02551 14.6675 7.15692C14.6675 7.28833 14.6416 7.41844 14.5911 7.53977C14.5406 7.66111 14.4667 7.77127 14.3735 7.86392L8.7165 13.5209C8.62426 13.6164 8.51391 13.6926 8.39191 13.745C8.2699 13.7974 8.13868 13.825 8.00591 13.8262C7.87313 13.8273 7.74145 13.802 7.61855 13.7517C7.49565 13.7015 7.384 13.6272 7.29011 13.5333C7.19622 13.4394 7.12196 13.3278 7.07168 13.2049C7.0214 13.082 6.9961 12.9503 6.99725 12.8175C6.99841 12.6847 7.02599 12.5535 7.0784 12.4315C7.13081 12.3095 7.20699 12.1992 7.3025 12.1069L11.2525 8.15692H1.6665C1.40129 8.15692 1.14693 8.05156 0.959397 7.86403C0.771861 7.67649 0.666504 7.42214 0.666504 7.15692C0.666504 6.8917 0.771861 6.63735 0.959397 6.44981C1.14693 6.26228 1.40129 6.15692 1.6665 6.15692H11.2525Z" fill="#ffffff"/>
</svg>
